<?xml version="1.0" standalone="no"?>
<!DOCTYPE svg PUBLIC "-//W3C//DTD SVG 20010904//EN"
 "http://www.w3.org/TR/2001/REC-SVG-20010904/DTD/svg10.dtd">
<svg version="1.0" xmlns="http://www.w3.org/2000/svg"
 width="700.000000pt" height="700.000000pt" viewBox="0 0 700.000000 700.000000"
 preserveAspectRatio="xMidYMid meet">
<metadata>
Created by potrace 1.14, written by Peter Selinger 2001-2017
</metadata>
<g transform="translate(0.000000,700.000000) scale(0.100000,-0.100000)"
fill="#000000" stroke="none">
<path d="M1387 5830 c-95 -24 -169 -89 -203 -176 -18 -47 -19 -100 -19 -1474
l0 -1425 24 -48 c91 -183 370 -274 550 -179 254 134 402 204 511 240 234 77
410 109 655 119 817 31 1577 -373 2020 -1073 62 -98 157 -290 199 -400 36 -97
76 -156 128 -191 75 -51 103 -58 238 -58 117 0 129 2 182 28 64 32 111 80 142
146 l21 46 0 1505 0 1505 -28 57 c-62 126 -231 218 -402 218 -72 0 -155 -29
-249 -86 -581 -354 -1299 -430 -1951 -204 -121 42 -368 164 -484 240 -275 179
-542 455 -711 734 -28 48 -79 143 -111 212 -103 216 -169 265 -364 270 -60 2
-127 -1 -148 -6z"/>
<path d="M2551 5829 c-81 -16 -165 -85 -199 -162 -49 -113 56 -326 263 -533
129 -129 252 -215 435 -303 274 -131 551 -196 885 -208 581 -20 1120 161 1464
492 117 113 179 194 239 314 43 86 47 100 47 166 0 62 -4 77 -28 114 -29 44
-97 93 -157 113 -42 15 -2878 22 -2949 7z"/>
<path d="M2780 2479 c-544 -63 -1038 -360 -1348 -812 -35 -51 -76 -119 -92
-151 -52 -104 -35 -203 48 -278 88 -80 -61 -73 1597 -73 1371 0 1483 1 1517
17 62 28 103 65 132 119 25 44 28 59 24 117 -3 56 -10 78 -45 137 -343 583
-974 941 -1645 934 -62 -1 -147 -5 -188 -10z"/>
</g>
</svg>
