<?xml version="1.0" standalone="no"?>
<!DOCTYPE svg PUBLIC "-//W3C//DTD SVG 20010904//EN"
 "http://www.w3.org/TR/2001/REC-SVG-20010904/DTD/svg10.dtd">
<svg version="1.0" xmlns="http://www.w3.org/2000/svg"
 width="700.000000pt" height="700.000000pt" viewBox="0 0 700.000000 700.000000"
 preserveAspectRatio="xMidYMid meet">
<metadata>
Created by potrace 1.11, written by Peter Selinger 2001-2013
</metadata>
<g transform="translate(0.000000,700.000000) scale(0.100000,-0.100000)"
fill="#000000" stroke="none">
<path d="M1070 6980 c-122 -27 -201 -54 -317 -110 -121 -59 -172 -92 -278
-180 -184 -153 -327 -359 -403 -580 -32 -93 -38 -113 -62 -230 -6 -27 -8 -982
-7 -2410 l2 -2365 31 -105 c41 -135 63 -193 111 -283 102 -188 203 -308 368
-439 59 -46 189 -131 205 -134 3 0 39 -17 82 -36 85 -40 154 -62 273 -89 75
-16 221 -17 2415 -18 2486 -1 2379 -3 2540 44 408 119 737 421 888 815 13 36
36 106 51 155 l25 90 3 2370 c1 2268 1 2374 -17 2455 -109 503 -483 901 -970
1031 -147 39 -78 38 -2510 38 -2253 0 -2348 -1 -2430 -19z"/>
</g>
</svg>
